# xmcd
#
# Track frame offsets: 
#        150
#        23402
#        54006
#        92199
#        140154
#        184664
#        208550
#
# Disc length: 3228 seconds
#
# Revision: 0
# Processed by: cddbd v1.5.2PL0 Copyright (c) Steve Scherf et al.
# Submitted via: ExactAudioCopy v0.99pb4
#
DISCID=550c9a07
DTITLE=Chris Rea - The road to hell and back CD2
DYEAR=1900
DGENRE=Blues
TTITLE0=Julia
TTITLE1=Stainsby girls
TTITLE2=Somewhere between highway 61 and 49
TTITLE3=I can hear your hearbeat
TTITLE4=The road to hell
TTITLE5=On the beach
TTITLE6=Let´s dance
EXTD=
EXTT0=
EXTT1=
EXTT2=
EXTT3=
EXTT4=
EXTT5=
EXTT6=
PLAYORDER=
